<svg width="68" height="72" viewBox="0 0 68 72" fill="none" xmlns="http://www.w3.org/2000/svg">
<g filter="url(#filter0_d_302815_5558)">
<path d="M63.5462 44.1952L46.6598 27.1851L48.5339 17.9541C49.0175 18.1429 49.5316 18.2416 50.0507 18.2453H50.0635C52.448 18.2735 54.4039 16.3633 54.4322 13.9788C54.4604 11.5943 52.5502 9.6384 50.1656 9.61013C47.7811 9.582 45.8252 11.4921 45.797 13.8767C45.791 14.3869 45.8754 14.8941 46.0464 15.3749L36.1264 16.5856L19.9451 0.32C19.7466 0.117467 19.4756 0.00226667 19.192 0C18.912 0.00146667 18.6439 0.112933 18.4454 0.3104L15.4203 3.3184C15.0039 3.73493 15.0039 4.41013 15.4203 4.82667L17.048 6.47787C10.7419 18.0737 12.7902 32.4335 22.087 41.8037C22.1723 41.8853 22.2712 41.9513 22.3792 41.9989C22.312 42.3599 22.277 42.7261 22.2747 43.0933V55.4667H9.47469C6.53069 55.4701 4.14482 57.856 4.14136 60.8V62.9333C4.14136 63.5224 4.61896 64 5.20802 64H54.2747C54.8638 64 55.3414 63.5224 55.3414 62.9333V60.8C55.3379 57.856 52.952 55.4701 50.008 55.4667H37.208V49.9829C39.2132 50.4035 41.2563 50.6179 43.3051 50.6229C48.2214 50.6176 53.0594 49.392 57.3851 47.056L59.0214 48.7019C59.2199 48.9044 59.4908 49.0196 59.7744 49.0219C60.0544 49.0204 60.3226 48.9089 60.5211 48.7115L63.5462 45.7035C63.9626 45.2869 63.9626 44.6117 63.5462 44.1952ZM48.5595 12.4661C49.3948 11.6352 50.7456 11.6389 51.5764 12.4743C52.4074 13.3096 52.4036 14.6604 51.5683 15.4912C51.1684 15.8889 50.6274 16.1121 50.0634 16.112H50.057C48.8788 16.1059 47.9286 15.1459 47.9347 13.9676C47.9376 13.4036 48.1638 12.8639 48.5636 12.4661H48.5595ZM46.0486 19.4752L44.8518 25.3664L42.5008 23.0016L46.0486 19.4752ZM44.8368 17.6715L40.9968 21.4891L38.0262 18.5024L44.8368 17.6715ZM50.008 57.6C51.7754 57.6 53.208 59.0327 53.208 60.8V61.8667H6.27469V60.8C6.27469 59.0327 7.70736 57.6 9.47469 57.6H50.008ZM35.0747 53.3333V55.4667H24.408V53.3333H35.0747ZM24.408 51.2V43.0933C24.408 40.5056 26.8006 38.4 29.7414 38.4C32.6822 38.4 35.0747 40.5056 35.0747 43.0933V51.2H24.408ZM37.208 47.808V43.0933C37.208 39.3291 33.8587 36.2667 29.7414 36.2667C27.0792 36.2259 24.5899 37.5809 23.1792 39.8389C15.0638 31.2913 13.2363 18.5485 18.622 8.06467L55.8256 45.4816C50.0808 48.404 43.4954 49.2268 37.208 47.808ZM59.7862 46.4405L58.2832 44.9291L19.1814 5.59147L17.672 4.07893L19.1814 2.57493L35.0512 18.5344C35.0587 18.5344 35.063 18.5483 35.0704 18.5536L61.2998 44.9365L59.7862 46.4405Z" fill="#2E2F42"/>
<path d="M29.751 40.5333H29.7414C27.9741 40.5307 26.5393 41.9612 26.5366 43.7285C26.534 45.4959 27.9645 46.9307 29.7318 46.9333H29.7414C31.5088 46.936 32.9436 45.5055 32.9462 43.7381C32.9489 41.9708 31.5184 40.536 29.751 40.5333ZM30.4977 44.4896C30.2969 44.6893 30.0248 44.8011 29.7414 44.8C29.1524 44.7969 28.6773 44.3169 28.6804 43.7279C28.6818 43.4459 28.7949 43.176 28.9948 42.9771C29.1933 42.7796 29.4614 42.6681 29.7414 42.6667C30.3305 42.6697 30.8056 43.1497 30.8025 43.7388C30.801 44.0208 30.688 44.2907 30.4881 44.4896H30.4977Z" fill="#4D5AE5"/>
</g>
<defs>
<filter id="filter0_d_302815_5558" x="-2" y="0" width="72" height="72" filterUnits="userSpaceOnUse" color-interpolation-filters="sRGB">
<feFlood flood-opacity="0" result="BackgroundImageFix"/>
<feColorMatrix in="SourceAlpha" type="matrix" values="0 0 0 0 0 0 0 0 0 0 0 0 0 0 0 0 0 0 127 0" result="hardAlpha"/>
<feOffset dy="4"/>
<feGaussianBlur stdDeviation="2"/>
<feComposite in2="hardAlpha" operator="out"/>
<feColorMatrix type="matrix" values="0 0 0 0 0 0 0 0 0 0 0 0 0 0 0 0 0 0 0.25 0"/>
<feBlend mode="normal" in2="BackgroundImageFix" result="effect1_dropShadow_302815_5558"/>
<feBlend mode="normal" in="SourceGraphic" in2="effect1_dropShadow_302815_5558" result="shape"/>
</filter>
</defs>
</svg>
